<?xml version="1.0"?>
<svg xmlns="http://www.w3.org/2000/svg" width="35" height="42" viewBox="0 0 35 42" fill="none">
<path d="M25.6603 5.72557C21.227 3.81464 17.3331 1 17.3331 1C17.3331 1 13.4393 3.81464 9.006 5.72557C4.74132 7.56427 1.33337 7.73943 1.33337 7.73943V21.744C1.33337 25.595 1.94096 29.7963 6.90084 34.5232C11.8607 39.2497 17.3334 41 17.3334 41C17.3334 41 22.8057 39.2493 27.7659 34.5232C32.7261 29.7967 33.3334 25.5955 33.3334 21.744V7.73943C33.3334 7.73943 29.9255 7.56427 25.6608 5.72557H25.6603Z" stroke="#0E7270" stroke-width="2" stroke-linejoin="round"/>
<path fill-rule="evenodd" clip-rule="evenodd" d="M17.3516 11C14.3766 11 11.9649 13.4117 11.9649 16.3867V18.6142C10.3982 19.4584 9.33337 21.1142 9.33337 23.0187V25.5468C9.33337 28.3082 11.572 30.5468 14.3334 30.5468H20.3708C23.1322 30.5468 25.3708 28.3082 25.3708 25.5468V23.0187C25.3708 21.1138 24.3056 19.4577 22.7383 18.6136V16.3867C22.7383 13.4117 20.3266 11 17.3516 11ZM20.7383 18.032V16.3867C20.7383 14.5163 19.222 13 17.3516 13C15.4812 13 13.9649 14.5163 13.9649 16.3867V18.0321C14.0866 18.0232 14.2094 18.0187 14.3334 18.0187H20.3708C20.4944 18.0187 20.617 18.0232 20.7383 18.032ZM11.3334 23.0187C11.3334 21.3619 12.6765 20.0187 14.3334 20.0187H20.3708C22.0277 20.0187 23.3708 21.3619 23.3708 23.0187V25.5468C23.3708 27.2037 22.0277 28.5468 20.3708 28.5468H14.3334C12.6765 28.5468 11.3334 27.2037 11.3334 25.5468V23.0187ZM17.3495 21.6508C16.3817 21.6523 15.5977 22.4373 15.5977 23.4054C15.5977 24.0549 15.9505 24.622 16.475 24.9254V25.6007V26.0375C16.475 26.522 16.8678 26.9148 17.3523 26.9148C17.8369 26.9148 18.2297 26.522 18.2297 26.0375V25.6007V24.9254C18.7542 24.622 19.107 24.0549 19.107 23.4054C19.107 22.4364 18.3214 21.6508 17.3524 21.6508C17.3523 21.6508 17.3523 21.6508 17.3523 21.6508" fill="#0E7270"/>
</svg>
