<?xml version="1.0"?>
<svg xmlns="http://www.w3.org/2000/svg" width="40" height="40" viewBox="0 0 40 40" fill="none">
<path d="M29.6 14.4453C29.6 13.5754 28.8625 12.8711 27.953 12.8711C27.0434 12.8711 26.3062 13.5764 26.3062 14.4453C26.3062 19.0365 22.4008 22.7715 17.6005 22.7715C12.8001 22.7715 8.89425 19.0365 8.89425 14.4453C8.89425 13.5754 8.15658 12.8711 7.24724 12.8711C6.3379 12.8711 5.59998 13.5764 5.59998 14.4453C5.59998 20.2377 10.1147 25.0288 15.9542 25.8007V28.8969C15.9542 29.7668 16.6916 30.4711 17.6012 30.4711C18.5108 30.4711 19.2482 29.7658 19.2482 28.8969V25.8007C25.085 25.0281 29.6 20.2377 29.6 14.4453Z" stroke="#0E7270" stroke-width="2" stroke-linejoin="round"/>
<path d="M17.6 30.4001V32.3853C17.6 35.7072 20.4653 38.4001 24 38.4001C27.5348 38.4001 30.4 35.7072 30.4 32.3853" stroke="#0E7270" stroke-width="2" stroke-linejoin="round"/>
<path d="M33.6 29.2C33.6 30.7464 32.3464 32.0001 30.7999 32.0001C29.2534 32.0001 28 30.7464 28 29.2C28 27.6536 29.2536 26.4001 30.7999 26.4001C32.3461 26.4001 33.6 27.6536 33.6 29.2Z" stroke="#0E7270" stroke-width="2" stroke-linejoin="round"/>
<path d="M7.22034 13.2743V7.85925C7.22041 7.09183 7.44478 6.338 7.87078 5.67384C8.29679 5.00969 8.90936 4.45871 9.64668 4.07652L10.4203 3.67432" stroke="#0E7270" stroke-width="2" stroke-linejoin="round"/>
<path d="M13.1238 3.19997C13.1238 4.08362 12.4071 4.8001 11.5238 4.8001C10.6405 4.8001 9.92383 4.08439 9.92383 3.19997C9.92383 2.31555 10.6403 1.6001 11.5238 1.6001C12.4074 1.6001 13.1238 2.31632 13.1238 3.19997Z" fill="#0E7270" stroke="#0E7270" stroke-width="2" stroke-linejoin="round"/>
<path d="M24.8093 3.67432L25.583 4.07654C26.3202 4.45871 26.9327 5.00964 27.3587 5.67373C27.7847 6.33782 28.0092 7.09159 28.0093 7.85897V13.2743" stroke="#0E7270" stroke-width="2" stroke-linejoin="round"/>
<path d="M23.448 4.8001C24.3317 4.8001 25.048 4.08375 25.048 3.2001C25.048 2.31644 24.3317 1.6001 23.448 1.6001C22.5644 1.6001 21.848 2.31644 21.848 3.2001C21.848 4.08375 22.5644 4.8001 23.448 4.8001Z" fill="#0E7270" stroke="#0E7270" stroke-width="2" stroke-linejoin="round"/>
</svg>
