<?xml version="1.0"?>
<svg xmlns="http://www.w3.org/2000/svg" width="41" height="40" viewBox="0 0 41 40" fill="none">
<g clip-path="url(#clip0_30_10463)">
<path fill-rule="evenodd" clip-rule="evenodd" d="M20.6535 0.0527344C21.2057 0.0527344 21.6535 0.50045 21.6535 1.05273V3.03099C30.2522 3.52925 37.1375 10.4144 37.636 19.0131H39.6139C40.1661 19.0131 40.6139 19.4609 40.6139 20.0131C40.6139 20.5654 40.1661 21.0131 39.6139 21.0131H37.636C37.1376 29.6119 30.2523 36.4971 21.6535 36.9953V38.9736C21.6535 39.5259 21.2057 39.9736 20.6535 39.9736C20.1012 39.9736 19.6535 39.5259 19.6535 38.9736V36.9953C11.055 36.4966 4.17014 29.6116 3.67171 21.0131H1.69287C1.14059 21.0131 0.692871 20.5654 0.692871 20.0131C0.692871 19.4609 1.14059 19.0131 1.69287 19.0131H3.67171C4.17017 10.4147 11.0551 3.52968 19.6535 3.03104V1.05273C19.6535 0.50045 20.1012 0.0527344 20.6535 0.0527344ZM5.67559 21.0131H8.01302C8.56531 21.0131 9.01302 20.5654 9.01302 20.0131C9.01302 19.4609 8.56531 19.0131 8.01302 19.0131H5.67559C6.16846 11.5197 12.16 5.52797 19.6535 5.03492V7.37289C19.6535 7.92517 20.1012 8.37289 20.6535 8.37289C21.2057 8.37289 21.6535 7.92517 21.6535 7.37289V5.03486C29.1473 5.52754 35.1392 11.5194 35.6321 19.0131H33.2937C32.7414 19.0131 32.2937 19.4609 32.2937 20.0131C32.2937 20.5654 32.7414 21.0131 33.2937 21.0131H35.6321C35.1393 28.5069 29.1473 34.4988 21.6535 34.9915V32.6535C21.6535 32.1012 21.2057 31.6535 20.6535 31.6535C20.1012 31.6535 19.6535 32.1012 19.6535 32.6535V34.9914C12.16 34.4984 6.16843 28.5066 5.67559 21.0131Z" fill="#0E7270"/>
</g>
<path fill-rule="evenodd" clip-rule="evenodd" d="M23.8657 22.7306C23.4295 24.0565 22.1812 25.0138 20.7092 25.0138C18.8744 25.0138 17.387 23.5264 17.387 21.6916C17.387 20.4113 17.9771 18.7837 18.8991 17.1017C19.4778 16.046 20.1325 15.0661 20.7092 14.2716C21.1389 14.8636 21.6119 15.5585 22.0645 16.311C22.1528 16.1207 22.2445 15.9379 22.3366 15.7645C22.6099 15.2496 22.9118 14.7692 23.196 14.3539C22.5375 13.3491 21.8933 12.4972 21.4256 11.9099C21.0526 11.4415 20.3658 11.4415 19.9928 11.9099C18.5407 13.7335 15.387 18.1068 15.387 21.6916C15.387 24.631 17.7698 27.0138 20.7092 27.0138C23.2006 27.0138 25.2922 25.302 25.8719 22.9903C25.7061 23.0112 25.5373 23.0221 25.3658 23.0221C24.8353 23.0221 24.3289 22.9185 23.8657 22.7306Z" fill="#0E7270"/>
<path d="M27.6666 19C27.6666 20.6569 26.5473 22 25.1666 22C23.7859 22 22.6666 20.6569 22.6666 19C22.6666 17.3227 23.6874 15.3391 24.4244 14.1255C24.773 13.5514 25.5602 13.5514 25.9088 14.1255C26.6459 15.3391 27.6666 17.3227 27.6666 19Z" fill="#0E7270"/>
<defs>
<clipPath id="clip0_30_10463">
<rect width="40" height="40" fill="white" transform="translate(0.666626)"/>
</clipPath>
</defs>
</svg>
